<svg width="178" height="178" viewBox="0 0 178 178" fill="none" xmlns="http://www.w3.org/2000/svg">
<path d="M93.895 41.6075C55.8475 41.6075 24.92 63.635 24.92 90.5575C24.92 103.463 32.04 115.255 43.3875 123.933L36.045 150.188L71.4225 136.838C78.5425 138.618 86.1075 139.507 93.895 139.507C131.942 139.507 162.87 117.48 162.87 90.5575C162.87 63.635 131.942 41.6075 93.895 41.6075Z" fill="#6FB0BE"/>
<path d="M32.7075 153.97L40.94 124.823C29.1475 115.478 22.695 103.24 22.695 90.5575C22.695 62.3 54.735 39.3825 93.895 39.3825C133.055 39.3825 165.095 62.3 165.095 90.5575C165.095 118.815 133.055 141.733 93.895 141.733C86.33 141.733 78.765 140.843 71.645 139.063L32.7075 153.97ZM93.895 43.8325C57.1825 43.8325 27.145 64.7475 27.145 90.5575C27.145 102.35 33.375 113.475 44.7225 122.153L45.835 123.043L39.16 146.628L71.2 134.613L71.8675 134.835C78.9875 136.615 86.33 137.505 93.895 137.505C130.607 137.505 160.645 116.59 160.645 90.78C160.645 64.7475 130.607 43.8325 93.895 43.8325Z" fill="#231C1C"/>
<path d="M56.07 92.7825C56.07 93.9513 56.3002 95.1086 56.7475 96.1884C57.1947 97.2682 57.8503 98.2493 58.6768 99.0758C59.5032 99.9022 60.4843 100.558 61.5641 101.005C62.6439 101.452 63.8012 101.683 64.97 101.683C66.1388 101.683 67.2961 101.452 68.3759 101.005C69.4557 100.558 70.4368 99.9022 71.2633 99.0758C72.0897 98.2493 72.7453 97.2682 73.1925 96.1884C73.6398 95.1086 73.87 93.9513 73.87 92.7825C73.87 90.4221 72.9323 88.1583 71.2633 86.4893C69.5942 84.8202 67.3304 83.8825 64.97 83.8825C62.6096 83.8825 60.3458 84.8202 58.6768 86.4893C57.0077 88.1583 56.07 90.4221 56.07 92.7825Z" fill="#F2E5CA"/>
<path d="M64.97 103.908C58.74 103.908 53.845 99.0125 53.845 92.7825C53.845 86.5525 58.74 81.6575 64.97 81.6575C71.2 81.6575 76.095 86.5525 76.095 92.7825C76.095 99.0125 71.2 103.908 64.97 103.908ZM64.97 86.1075C61.1875 86.1075 58.295 89 58.295 92.7825C58.295 96.565 61.1875 99.4575 64.97 99.4575C68.7525 99.4575 71.645 96.565 71.645 92.7825C71.645 89 68.53 86.1075 64.97 86.1075Z" fill="#231C1C"/>
<path d="M87.22 92.7825C87.22 95.1429 88.1576 97.4067 89.8267 99.0758C91.4958 100.745 93.7595 101.683 96.12 101.683C98.4804 101.683 100.744 100.745 102.413 99.0758C104.082 97.4067 105.02 95.1429 105.02 92.7825C105.02 91.6137 104.79 90.4564 104.342 89.3766C103.895 88.2968 103.24 87.3157 102.413 86.4893C101.587 85.6628 100.606 85.0072 99.5259 84.56C98.4461 84.1127 97.2887 83.8825 96.12 83.8825C94.9512 83.8825 93.7939 84.1127 92.7141 84.56C91.6343 85.0072 90.6532 85.6628 89.8267 86.4893C89.0003 87.3157 88.3447 88.2968 87.8974 89.3766C87.4502 90.4564 87.22 91.6137 87.22 92.7825Z" fill="#F2E5CA"/>
<path d="M96.12 103.908C89.89 103.908 84.995 99.0125 84.995 92.7825C84.995 86.5525 89.89 81.6575 96.12 81.6575C102.35 81.6575 107.245 86.5525 107.245 92.7825C107.245 99.0125 102.35 103.908 96.12 103.908ZM96.12 86.1075C92.3375 86.1075 89.445 89 89.445 92.7825C89.445 96.565 92.3375 99.4575 96.12 99.4575C99.9025 99.4575 102.795 96.565 102.795 92.7825C102.795 89 99.68 86.1075 96.12 86.1075Z" fill="#231C1C"/>
<path d="M118.37 92.7825C118.37 93.9513 118.6 95.1086 119.047 96.1884C119.495 97.2682 120.15 98.2493 120.977 99.0758C121.803 99.9022 122.784 100.558 123.864 101.005C124.944 101.452 126.101 101.683 127.27 101.683C128.439 101.683 129.596 101.452 130.676 101.005C131.756 100.558 132.737 99.9022 133.563 99.0758C134.39 98.2493 135.045 97.2682 135.493 96.1884C135.94 95.1086 136.17 93.9513 136.17 92.7825C136.17 91.6137 135.94 90.4564 135.493 89.3766C135.045 88.2968 134.39 87.3157 133.563 86.4893C132.737 85.6628 131.756 85.0072 130.676 84.56C129.596 84.1127 128.439 83.8825 127.27 83.8825C126.101 83.8825 124.944 84.1127 123.864 84.56C122.784 85.0072 121.803 85.6628 120.977 86.4893C120.15 87.3157 119.495 88.2968 119.047 89.3766C118.6 90.4564 118.37 91.6137 118.37 92.7825Z" fill="#F2E5CA"/>
<path d="M127.27 103.908C121.04 103.908 116.145 99.0125 116.145 92.7825C116.145 86.5525 121.04 81.6575 127.27 81.6575C133.5 81.6575 138.395 86.5525 138.395 92.7825C138.395 99.0125 133.5 103.908 127.27 103.908ZM127.27 86.1075C123.488 86.1075 120.595 89 120.595 92.7825C120.595 96.565 123.488 99.4575 127.27 99.4575C131.053 99.4575 133.945 96.565 133.945 92.7825C133.945 89 130.83 86.1075 127.27 86.1075Z" fill="#231C1C"/>
</svg>
