<svg width="124" height="117" viewBox="0 0 124 117" fill="none" xmlns="http://www.w3.org/2000/svg">
<path d="M68.2 40.95C68.2 42.5587 66.805 43.875 65.1 43.875H18.6C16.895 43.875 15.5 42.5587 15.5 40.95V19.0125C15.5 17.4037 16.895 16.0875 18.6 16.0875H46.5C48.205 16.0875 49.6 17.4037 49.6 19.0125L68.2 40.95Z" fill="#D3AC51"/>
<path d="M65.1 45.3375H18.6C15.965 45.3375 13.95 43.4362 13.95 40.95V19.0125C13.95 16.5262 15.965 14.625 18.6 14.625H46.5C48.825 14.625 50.84 16.2337 51.15 18.4275L69.75 40.365V40.95C69.75 43.4362 67.735 45.3375 65.1 45.3375ZM18.6 17.55C17.67 17.55 17.05 18.135 17.05 19.0125V40.95C17.05 41.8275 17.67 42.4125 18.6 42.4125H65.1C65.72 42.4125 66.34 41.9737 66.65 41.3887L48.05 19.5975V19.0125C48.05 18.135 47.43 17.55 46.5 17.55H18.6Z" fill="#231C1C"/>
<path d="M111.6 87.75C111.6 89.3587 110.205 90.675 108.5 90.675H18.6C16.895 90.675 15.5 89.3587 15.5 87.75V29.25C15.5 27.6412 16.895 26.325 18.6 26.325H108.5C110.205 26.325 111.6 27.6412 111.6 29.25V87.75Z" fill="#FAC546"/>
<path d="M108.5 92.1375H18.6C15.965 92.1375 13.95 90.2363 13.95 87.75V29.25C13.95 26.7638 15.965 24.8625 18.6 24.8625H108.5C111.135 24.8625 113.15 26.7638 113.15 29.25V87.75C113.15 90.2363 111.135 92.1375 108.5 92.1375ZM18.6 27.7875C17.67 27.7875 17.05 28.3725 17.05 29.25V87.75C17.05 88.6275 17.67 89.2125 18.6 89.2125H108.5C109.43 89.2125 110.05 88.6275 110.05 87.75V29.25C110.05 28.3725 109.43 27.7875 108.5 27.7875H18.6Z" fill="#231C1C"/>
</svg>
