<svg width="125" height="124" viewBox="0 0 125 124" fill="none" xmlns="http://www.w3.org/2000/svg">
<path d="M70.3125 12.4H32.8125C31.0937 12.4 29.6875 13.795 29.6875 15.5V105.4C29.6875 107.105 31.0937 108.5 32.8125 108.5H95.3125C97.0312 108.5 98.4375 107.105 98.4375 105.4V40.3L70.3125 12.4Z" fill="#00B2AE"/>
<path d="M95.3125 110.05H32.8125C30.1562 110.05 28.125 108.035 28.125 105.4V15.5C28.125 12.865 30.1562 10.85 32.8125 10.85H70.9375L100 39.68V105.4C100 108.035 97.9688 110.05 95.3125 110.05ZM32.8125 13.95C31.875 13.95 31.25 14.57 31.25 15.5V105.4C31.25 106.33 31.875 106.95 32.8125 106.95H95.3125C96.25 106.95 96.875 106.33 96.875 105.4V40.92L69.6875 13.95H32.8125Z" fill="#231C1C"/>
<path d="M70.3125 37.2C70.3125 38.905 71.7187 40.3 73.4375 40.3H98.4375L70.3125 12.4V37.2Z" fill="#008181"/>
<path d="M98.4375 41.85H73.4375C70.7812 41.85 68.75 39.835 68.75 37.2V12.4C68.75 11.78 69.0625 11.16 69.6875 11.005C70.3125 10.695 70.9375 10.85 71.4063 11.315L99.5312 39.215C100 39.68 100.156 40.3 99.8438 40.92C99.6875 41.54 99.0625 41.85 98.4375 41.85ZM71.875 16.12V37.2C71.875 38.13 72.5 38.75 73.4375 38.75H94.6875L71.875 16.12ZM40.625 52.7H85.9375V55.8H40.625V52.7ZM40.625 63.55H85.9375V66.65H40.625V63.55Z" fill="#231C1C"/>
<path d="M40.625 74.4H85.9375V77.5H40.625V74.4Z" fill="#231C1C"/>
<path d="M40.625 86.8H85.9375V89.9H40.625V86.8Z" fill="#231C1C"/>
</svg>
