<svg width="118" height="122" viewBox="0 0 118 122" fill="none" xmlns="http://www.w3.org/2000/svg">
<path d="M98.53 97.1425C98.53 99.2775 96.6125 100.955 94.105 100.955H26.1075C23.7475 100.955 21.6825 99.2775 21.6825 97.1425V44.225C21.6825 42.09 23.6 40.4125 26.1075 40.4125H94.105C96.465 40.4125 98.53 42.09 98.53 44.225V97.1425Z" fill="#E1E0A6"/>
<path d="M94.105 102.48H26.1075C22.8625 102.48 20.2075 100.04 20.2075 97.1425V44.225C20.2075 41.3275 22.8625 38.8875 26.1075 38.8875H94.105C97.35 38.8875 100.005 41.3275 100.005 44.225V97.1425C100.005 100.04 97.35 102.48 94.105 102.48ZM26.1075 41.9375C24.485 41.9375 23.1575 43.005 23.1575 44.225V97.1425C23.1575 98.3625 24.485 99.43 26.1075 99.43H94.105C95.7275 99.43 97.055 98.3625 97.055 97.1425V44.225C97.055 43.005 95.7275 41.9375 94.105 41.9375H26.1075Z" fill="#231C1C"/>
<path d="M105.757 53.5275C105.757 56.12 104.135 58.255 102.07 58.255L60.0325 39.1925L17.995 58.255C15.93 58.255 14.3075 56.12 14.3075 53.5275V46.8175C14.3075 44.225 15.93 42.09 17.995 42.09L60.0325 20.13L102.07 42.09C104.135 42.09 105.757 44.225 105.757 46.8175V53.5275Z" fill="#6FB0BE"/>
<path d="M102.07 59.78C101.922 59.78 101.627 59.78 101.48 59.6275L60.0325 40.87L18.585 59.6275C18.4375 59.78 18.1425 59.78 17.995 59.78C15.1925 59.78 12.8325 57.035 12.8325 53.5275V46.8175C12.8325 43.4625 14.8975 40.7175 17.5525 40.565L59.295 18.7575C59.7375 18.605 60.18 18.605 60.6225 18.7575L102.365 40.565C105.02 40.87 107.085 43.4625 107.085 46.8175V53.5275C107.232 56.8825 105.02 59.78 102.07 59.78ZM60.0325 21.8075L18.7325 43.4625C18.585 43.615 18.29 43.615 18.1425 43.615C16.9625 43.615 15.93 45.14 15.93 46.8175V53.5275C15.93 55.205 16.815 56.5775 17.8475 56.73L59.59 37.82C60.0325 37.6675 60.3275 37.6675 60.77 37.82L102.512 56.73C103.545 56.5775 104.43 55.205 104.43 53.5275V46.8175C104.43 44.9875 103.397 43.615 102.217 43.615C101.922 43.615 101.775 43.615 101.48 43.4625L60.0325 21.8075Z" fill="#231C1C"/>
<path d="M71.8325 101.108H51.33V75.64C51.33 73.505 53.1 71.98 55.165 71.98H67.9975C70.0625 71.98 71.8325 73.505 71.8325 75.64V101.108Z" fill="#FDE8C2"/>
<path d="M71.8325 102.633H51.33C50.445 102.633 49.855 102.023 49.855 101.108V75.64C49.855 72.7425 52.0675 70.455 55.165 70.455H67.9975C70.9475 70.455 73.3075 72.59 73.3075 75.64V100.955C73.3075 101.87 72.7175 102.633 71.8325 102.633ZM52.805 99.5825H70.3575V75.64C70.3575 74.2675 69.1775 73.505 67.9975 73.505H55.165C53.985 73.505 52.805 74.115 52.805 75.64V99.5825Z" fill="#231C1C"/>
</svg>
