<svg width="199" height="177" viewBox="0 0 199 177" fill="none" xmlns="http://www.w3.org/2000/svg">
<path d="M113.181 66.375C113.181 68.8088 110.943 70.8 108.206 70.8L33.5813 141.6C30.845 141.6 28.6063 139.609 28.6063 137.175V33.1875C28.6063 30.7538 30.845 28.7625 33.5813 28.7625H78.3563C81.0925 28.7625 83.3313 30.7538 83.3313 33.1875L113.181 66.375Z" fill="#D3AC51"/>
<path d="M34.5763 143.812H33.5813C29.3525 143.812 26.1188 140.936 26.1188 137.175V33.1875C26.1188 29.4263 29.3525 26.55 33.5813 26.55H78.3563C82.0875 26.55 85.3213 28.9838 85.8188 32.3025L115.669 65.49V66.375C115.669 69.6937 112.933 72.3487 109.45 73.0125L34.5763 143.812ZM33.5813 30.975C32.0888 30.975 31.0938 31.86 31.0938 33.1875V137.175C31.0938 138.06 31.84 138.945 32.5863 139.166L106.963 68.5875H107.958C108.953 68.5875 109.948 67.9237 110.445 67.0387L80.595 34.0725V33.1875C80.595 31.86 79.6 30.975 78.1075 30.975H33.5813Z" fill="#231C1C"/>
<path d="M167.906 137.175C167.906 139.609 165.668 141.6 162.931 141.6H33.5813C30.845 141.6 28.6063 139.609 28.6063 137.175L41.0438 48.675C41.0438 46.2413 43.2825 44.25 46.0188 44.25H177.856C180.593 44.25 182.831 46.2413 182.831 48.675L167.906 137.175Z" fill="#FAC546"/>
<path d="M162.931 143.813H33.5813C29.3525 143.813 26.1188 140.936 26.1188 137.175V136.954L38.5563 48.675C38.5563 45.135 42.0388 42.2588 46.0188 42.2588H177.856C182.085 42.2588 185.319 45.135 185.319 48.8963V49.1175L170.394 137.396C170.145 140.936 166.911 143.813 162.931 143.813ZM31.0938 137.396C31.0938 138.503 32.3375 139.388 33.5813 139.388H162.931C164.424 139.388 165.419 138.503 165.419 137.175V136.954L180.344 48.675C180.344 47.5688 179.1 46.6837 177.856 46.6837H46.0188C44.5263 46.6837 43.5313 47.5688 43.5313 48.8963V49.1175L31.0938 137.396Z" fill="#231C1C"/>
</svg>
