<svg width="124" height="116" viewBox="0 0 124 116" fill="none" xmlns="http://www.w3.org/2000/svg">
<path d="M76.7513 72.21L84.0952 65.3414L97.247 77.6446L89.9031 84.5133L76.7513 72.21Z" fill="#C1BDA5"/>
<path d="M89.9 86.565L74.555 72.21L84.165 63.22L99.51 77.575L89.9 86.565ZM78.895 72.21L89.9 82.505L95.015 77.72L84.01 67.425L78.895 72.21Z" fill="#231C1C"/>
<path d="M114.08 89.03C117.645 92.365 113.925 95.265 110.67 98.31C107.415 101.355 106.02 103.24 102.455 99.905L88.97 87.58C85.405 84.245 85.25 79.17 88.505 76.27C91.76 73.225 97.185 73.515 100.595 76.705L114.08 89.03Z" fill="#486068"/>
<path d="M105.71 103.095C104.315 103.095 102.92 102.37 101.37 100.92L87.885 88.595C85.87 86.71 84.785 84.39 84.63 81.78C84.475 79.17 85.405 76.85 87.42 75.11C89.435 73.37 91.915 72.5 94.55 72.5C97.185 72.645 99.82 73.66 101.835 75.545L115.32 87.87C116.56 89.03 117.18 90.335 117.18 91.64C117.18 94.25 114.855 96.425 112.53 98.6L111.29 99.76C109.275 101.645 107.725 103.095 105.71 103.095ZM94.085 75.545C92.38 75.545 90.83 76.125 89.59 77.285C88.35 78.445 87.73 80.04 87.73 81.78C87.885 83.52 88.66 85.26 90.055 86.565L103.54 98.89C104.47 99.76 105.245 100.195 105.71 100.195C106.485 100.195 107.57 99.18 108.965 97.875L110.205 96.715C112.065 94.975 113.925 93.235 113.925 91.785C113.925 91.205 113.615 90.625 112.995 90.045L99.51 77.72C98.115 76.415 96.255 75.545 94.395 75.545H94.085Z" fill="#231C1C"/>
<path d="M19.375 46.545C19.375 55.39 23.131 63.8727 29.8166 70.127C36.5023 76.3814 45.57 79.895 55.025 79.895C64.48 79.895 73.5477 76.3814 80.2334 70.127C86.919 63.8727 90.675 55.39 90.675 46.545C90.675 37.7 86.919 29.2173 80.2334 22.963C73.5477 16.7087 64.48 13.195 55.025 13.195C45.57 13.195 36.5023 16.7087 29.8166 22.963C23.131 29.2173 19.375 37.7 19.375 46.545Z" fill="#486068"/>
<path d="M55.025 81.345C34.565 81.345 17.825 65.685 17.825 46.545C17.825 27.405 34.565 11.745 55.025 11.745C75.485 11.745 92.225 27.405 92.225 46.545C92.225 65.685 75.485 81.345 55.025 81.345ZM55.025 14.645C36.27 14.645 20.925 29 20.925 46.545C20.925 64.09 36.27 78.445 55.025 78.445C73.78 78.445 89.125 64.09 89.125 46.545C89.125 29 73.78 14.645 55.025 14.645Z" fill="#231C1C"/>
<path d="M28.675 46.545C28.675 53.0826 31.4511 59.3524 36.3927 63.9752C41.3343 68.598 48.0365 71.195 55.025 71.195C62.0134 71.195 68.7157 68.598 73.6572 63.9752C78.5988 59.3524 81.375 53.0826 81.375 46.545C81.375 40.0074 78.5988 33.7376 73.6572 29.1148C68.7157 24.492 62.0134 21.895 55.025 21.895C48.0365 21.895 41.3343 24.492 36.3927 29.1148C31.4511 33.7376 28.675 40.0074 28.675 46.545Z" fill="#F2E5CA"/>
<path d="M55.025 72.645C39.68 72.645 27.125 60.9 27.125 46.69C27.125 32.48 39.68 20.59 55.025 20.59C70.37 20.59 82.77 32.335 82.77 46.69C82.77 61.045 70.37 72.645 55.025 72.645ZM55.025 23.49C41.385 23.49 30.225 33.93 30.225 46.69C30.225 59.45 41.385 69.745 55.025 69.745C68.665 69.745 79.67 59.305 79.67 46.69C79.67 34.075 68.665 23.49 55.025 23.49Z" fill="#231C1C"/>
</svg>
