<svg width="130" height="121" viewBox="0 0 130 121" fill="none" xmlns="http://www.w3.org/2000/svg">
<path d="M113.912 70.6338L104.487 64.2812C104.65 63.0713 104.65 61.71 104.65 60.5C104.65 59.1388 104.65 57.9287 104.487 56.7188L113.912 50.3662C115.537 49.4587 116.025 47.6437 115.05 46.2825L103.512 27.9813C102.537 26.4688 100.587 26.015 98.9625 26.9225L88.2375 31.3088C85.9625 29.7962 83.525 28.5863 80.925 27.5275L79.95 16.6375C79.95 14.9737 78.4875 13.6125 76.7 13.6125H53.625C51.8375 13.6125 50.375 14.9737 50.375 16.6375L49.2375 27.3762C46.6375 28.435 44.2 29.645 41.925 31.1575L31.2 26.7712C29.575 25.8638 27.625 26.4688 26.65 27.83L15.275 46.2825C14.3 47.795 14.95 49.61 16.4125 50.3662L25.8375 56.7188C25.675 57.9287 25.675 59.29 25.675 60.5C25.675 61.71 25.675 63.0713 25.8375 64.2812L16.4125 70.6338C14.7875 71.5413 14.3 73.3563 15.275 74.7175L26.8125 93.0188C27.7875 94.5313 29.7375 94.985 31.3625 94.0775L42.0875 89.6912C44.3625 91.2037 46.8 92.4138 49.4 93.4725L50.375 104.363C50.375 106.026 51.8375 107.388 53.625 107.388H76.7C78.4875 107.388 79.95 106.026 79.95 104.363L81.0875 93.6238C83.6875 92.565 86.125 91.355 88.4 89.8425L99.125 94.2288C100.75 95.1362 102.7 94.5313 103.675 93.17L115.212 74.8687C116.025 73.3562 115.375 71.5413 113.912 70.6338ZM65.1625 78.3475C54.4375 78.3475 45.6625 70.3312 45.6625 60.5C45.6625 50.6688 54.4375 42.6525 65.1625 42.6525C75.8875 42.6525 84.6625 50.6688 84.6625 60.5C84.6625 70.3312 75.8875 78.3475 65.1625 78.3475Z" fill="#FAC546"/>
<path d="M76.7 108.9H53.625C51.025 108.9 48.75 106.934 48.75 104.514L47.6125 94.8337C45.5 93.9262 43.55 92.8675 41.7625 91.6575L32.0125 95.7412C29.7375 96.9512 26.65 96.195 25.35 94.0775L13.8125 75.4737C13.1625 74.415 13 73.205 13.325 71.995C13.65 70.785 14.4625 69.8775 15.6 69.2725L24.2125 63.525C24.05 62.4662 24.05 61.4075 24.05 60.3488C24.05 59.29 24.05 58.2312 24.2125 57.1725L15.6 51.425C14.4625 50.82 13.65 49.9125 13.325 48.7025C13 47.4925 13.1625 46.2825 13.8125 45.2238L25.35 26.9225C26.65 24.805 29.575 24.0487 32.0125 25.2587L41.7625 29.3425C43.55 28.1325 45.6625 27.0737 47.6125 26.1662L48.75 16.4862C48.75 14.0662 50.8625 12.1 53.625 12.1H76.7C79.3 12.1 81.575 14.0662 81.575 16.4862L82.7125 26.1662C84.825 27.0737 86.775 28.1325 88.5625 29.3425L98.3125 25.2587C100.587 24.0487 103.675 24.805 104.975 26.9225L116.512 45.2238C117.162 46.2825 117.325 47.4925 117 48.7025C116.675 49.9125 115.862 50.82 114.725 51.425L106.112 57.1725C106.275 58.2312 106.275 59.29 106.275 60.3488C106.275 61.4075 106.275 62.4662 106.112 63.525L114.725 69.2725C115.862 69.8775 116.675 70.785 117 71.995C117.325 73.205 117.162 74.415 116.512 75.4737L104.975 93.775C103.675 95.8925 100.75 96.6487 98.3125 95.4387L88.5625 91.355C86.775 92.565 84.6625 93.6237 82.7125 94.5312L81.575 104.211C81.575 106.934 79.3 108.9 76.7 108.9ZM41.925 88.33C42.25 88.33 42.575 88.4812 42.9 88.6325C45.0125 90.145 47.45 91.355 49.8875 92.2625C50.375 92.4137 50.8625 93.0187 50.8625 93.4725L52 104.211V104.362C52 105.27 52.8125 105.875 53.625 105.875H76.7C77.675 105.875 78.325 105.27 78.325 104.362V104.211L79.4625 93.4725C79.4625 92.8675 79.95 92.4137 80.4375 92.2625C82.875 91.2037 85.15 89.9937 87.425 88.6325C87.9125 88.33 88.5625 88.33 89.05 88.4812L99.775 92.8675H99.9375C100.75 93.3212 101.725 93.0187 102.212 92.2625L113.75 73.9612C113.912 73.6587 114.075 73.205 113.912 72.9025C113.75 72.4487 113.587 72.1463 113.1 71.995C113.1 71.995 112.937 71.995 112.937 71.8438L103.512 65.4912C103.025 65.1887 102.7 64.5837 102.862 64.13C103.025 62.92 103.025 61.71 103.025 60.5C103.025 59.29 103.025 58.08 102.862 56.87C102.862 56.265 103.025 55.8112 103.512 55.5088L112.937 49.1562C112.937 49.1562 113.1 49.1562 113.1 49.005C113.425 48.8537 113.75 48.4 113.912 48.0975C114.075 47.6437 113.912 47.3412 113.75 47.0387L102.212 28.7375C101.725 27.9812 100.75 27.83 99.9375 28.1325H99.775L89.05 32.5188C88.5625 32.67 87.9125 32.67 87.425 32.3675C85.3125 30.855 82.875 29.645 80.4375 28.7375C79.95 28.5862 79.4625 27.9812 79.4625 27.5275L78.325 16.7887V16.6375C78.325 15.73 77.5125 15.125 76.7 15.125H53.625C52.65 15.125 52 15.73 52 16.6375V16.7887L50.8625 27.5275C50.8625 28.1325 50.375 28.5862 49.8875 28.7375C47.45 29.7962 45.175 31.0063 42.9 32.3675C42.4125 32.67 41.7625 32.67 41.275 32.5188L30.55 28.1325H30.3875C29.575 27.6787 28.6 27.9812 28.1125 28.7375L16.575 47.0387C16.4125 47.3412 16.25 47.795 16.4125 48.0975C16.575 48.5513 16.7375 48.8537 17.225 49.005C17.225 49.005 17.3875 49.005 17.3875 49.1562L26.8125 55.5088C27.3 55.8112 27.625 56.4162 27.4625 56.87C27.3 58.08 27.3 59.29 27.3 60.5C27.3 61.71 27.3 62.92 27.4625 64.13C27.4625 64.735 27.3 65.1887 26.8125 65.4912L17.3875 71.8438C17.3875 71.8438 17.225 71.8438 17.225 71.995C16.9 72.1463 16.575 72.6 16.4125 72.9025C16.25 73.3562 16.4125 73.6587 16.575 73.9612L28.1125 92.2625C28.6 93.0187 29.575 93.17 30.3875 92.8675H30.55L41.275 88.4812C41.4375 88.33 41.6 88.33 41.925 88.33ZM65.1625 79.86C53.4625 79.86 44.0375 71.0875 44.0375 60.5C44.0375 49.9125 53.4625 41.14 65.1625 41.14C76.8625 41.14 86.2875 49.9125 86.2875 60.5C86.2875 71.0875 76.7 79.86 65.1625 79.86ZM65.1625 44.165C55.25 44.165 47.2875 51.5762 47.2875 60.5C47.2875 69.575 55.25 76.835 65.1625 76.835C75.075 76.835 83.0375 69.4237 83.0375 60.5C83.0375 51.425 74.9125 44.165 65.1625 44.165Z" fill="#231C1C"/>
<path d="M65.1625 39.325C52.4875 39.325 42.25 48.8537 42.25 60.5C42.25 72.1462 52.4875 81.675 65.1625 81.675C77.8375 81.675 88.075 72.1462 88.075 60.5C88.075 48.8537 77.675 39.325 65.1625 39.325ZM65.1625 72.6C57.85 72.6 52 67.155 52 60.5C52 53.845 57.85 48.4 65.1625 48.4C72.475 48.4 78.325 53.845 78.325 60.5C78.325 67.155 72.3125 72.6 65.1625 72.6Z" fill="#E1E0A6"/>
<path d="M65.1625 83.1875C51.675 83.1875 40.625 73.0537 40.625 60.5C40.625 47.9462 51.675 37.8125 65.1625 37.8125C78.65 37.8125 89.7 47.9462 89.7 60.5C89.5375 73.0537 78.65 83.1875 65.1625 83.1875ZM65.1625 40.8375C53.4625 40.8375 43.875 49.61 43.875 60.5C43.875 71.39 53.4625 80.1625 65.1625 80.1625C76.8625 80.1625 86.45 71.39 86.45 60.5C86.2875 49.61 76.8625 40.8375 65.1625 40.8375ZM65.1625 74.1125C57.0375 74.1125 50.375 68.0625 50.375 60.5C50.375 52.9375 57.0375 46.8875 65.1625 46.8875C73.2875 46.8875 79.95 52.9375 79.95 60.5C79.95 68.0625 73.2875 74.1125 65.1625 74.1125ZM65.1625 49.9125C58.825 49.9125 53.625 54.6012 53.625 60.5C53.625 66.3988 58.825 71.0875 65.1625 71.0875C71.5 71.0875 76.7 66.3988 76.7 60.5C76.7 54.6012 71.5 49.9125 65.1625 49.9125Z" fill="#231C1C"/>
</svg>
